# xmcd
#
# Track frame offsets:
#	150
#	17643
#	37644
#	53981
#	77454
#
# Disc length: 1273 seconds
#
# Revision: 0
# Processed by: cddbd v1.5.2PL0 Copyright (c) Steve Scherf et al.
# Submitted via: audiograbber 1.83.01
#
DISCID=2904f705
DTITLE=The Lobes - The Lobes
DYEAR=2006
DGENRE=Rock
TTITLE0=Sweatbox
TTITLE1=Boys Will Be Girls
TTITLE2=Take Take Take
TTITLE3=All's Fair In Feuding (feat. Rosey McCarthy)
TTITLE4=The Bridge
EXTD=The Lobes are based in Tunbridge Wells, Kent, England.\nwww.thelobes.com
EXTT0=
EXTT1=
EXTT2=
EXTT3=
EXTT4=
PLAYORDER=
